<svg id="Layer_1" data-name="Layer 1" xmlns="http://www.w3.org/2000/svg" xmlns:xlink="http://www.w3.org/1999/xlink" viewBox="0 0 200 200"><defs><style>.cls-1{fill:url(#New_Gradient_Swatch_1);}.cls-2{fill:url(#New_Gradient_Swatch_1-2);}.cls-3{fill:url(#New_Gradient_Swatch_1-3);}</style><linearGradient id="New_Gradient_Swatch_1" x1="68.11" y1="7.41" x2="69.92" y2="131.27" gradientUnits="userSpaceOnUse"><stop offset="0" stop-color="#ec242d"/><stop offset="1" stop-color="#ed9cc4"/></linearGradient><linearGradient id="New_Gradient_Swatch_1-2" x1="0" y1="100" x2="200" y2="100" xlink:href="#New_Gradient_Swatch_1"/><linearGradient id="New_Gradient_Swatch_1-3" x1="109.29" y1="6.85" x2="111.11" y2="130.73" xlink:href="#New_Gradient_Swatch_1"/></defs><title>logo-200x200</title><path class="cls-1" d="M118.36,36.1v27H103.43V50.25H42.72v59.44a14.37,14.37,0,0,1,7.82,12.65c0,8-6.84,14.48-15.29,14.48S20,130.34,20,122.34a14.38,14.38,0,0,1,7.83-12.65V36.1Z"/><path class="cls-2" d="M200,63.12V200H0V10.51H142.21A18.61,18.61,0,0,1,159.2,0c10.26,0,18.58,7.86,18.58,17.58s-8.32,17.6-18.58,17.6a18.59,18.59,0,0,1-17-10.53H14.93V185.86H185.07V77.26H70.44V149H90.19v.06h56V125.45A17.82,17.82,0,0,1,135.32,112a15.69,15.69,0,0,1-.22-2.67c0-9.71,8.3-17.59,18.56-17.59s18.57,7.88,18.57,17.59a17.59,17.59,0,0,1-11.11,16.13v37.78H90.19v-.06H55.51v-100Z"/><path class="cls-3" d="M126.17,115.63c0,8-6.85,14.48-15.27,14.48s-15.29-6.48-15.29-14.48A14.33,14.33,0,0,1,103.43,103V77.26h14.93V103a14.56,14.56,0,0,1,7.49,9.72A13.17,13.17,0,0,1,126.17,115.63Z"/></svg>